<?xml version="1.0" encoding="UTF-8"?> <svg xmlns="http://www.w3.org/2000/svg" id="Layer_1" data-name="Layer 1" viewBox="0 0 1055.49 851.74"> <defs> <style>.cls-1{fill:#fff;}.cls-2{fill:#e20917;}</style> </defs> <title>великий герб-10-02 wip-07-01</title> <path d="M405.5,748.29c-22-18.24-54.27-45.71-59.57-54,0,0,13.37-13.74,18.74-14.27,4.55-.45,8.76.78,11.2,5.4,5.3-25-23-28.17-44.74-8.84l-5.83,5.51c-30-28.26-54.42-51.07-75-75.73h0c-3.83-4.57-7.51-9.2-11.09-13.94-18.24-24.22-33.4-51.31-47-87.44q-3-8-5.94-16.62-2.21-6.51-4.36-13.41t-4.35-14.43h0q-2.61-9-5.16-18.59-4.68-17.67-8.46-35.65-1.63-7.64-3.1-15.3-1.29-6.69-2.47-13.39-1.49-8.39-2.81-16.79c-2.38-15-4.4-29.9-6.15-44.72q-.78-6.58-1.49-13.13c-1.46-13.44-2.7-26.75-3.79-39.84q-.67-8-1.27-15.95c-2.67-35.4-4.34-68.89-6.16-98.66q-.46-7.69-1-15c-1.16-17.3-2.44-33.12-4.1-47-5.89,9.64-10.28,23.73-13.51,40.5q-1.18,6.11-2.16,12.64c-4.34,28.92-5.88,63.69-6,96.95q0,6.44,0,12.76c.24,44.1,2.67,83.75,3.88,101,.42,5.82.68,9.08.68,9.08,0,1.15,0,2.3.08,3.46A431.29,431.29,0,0,0,128.84,462q1.65,6.2,3.49,12.35A431.06,431.06,0,0,0,301.27,706.49l1.67,1.26s-24.28,18-31.76,3.82c-5.46,25.79,30.06,28.11,46.16,7.11l64.13,48.65a17.82,17.82,0,0,0,14.09,26.48c.27,0,.54,0,.82.05a17.66,17.66,0,0,0,15.28-8.17A23.53,23.53,0,0,0,414,781.4,29.2,29.2,0,0,0,405.5,748.29Z"></path> <path class="cls-1" d="M311.92,696.25S115,575.63,129,276.23C130.87,587,315.3,692,315.3,692Z"></path> <path d="M966.8,137.82q-.72-4.68-1.54-9.12c-3.27-17.59-7.76-32.36-13.87-42.34-1.73,14.51-3,31.07-4.24,49.23q-.36,5.31-.69,10.79c-1.91,30.87-3.63,65.83-6.45,102.83q-.45,5.73-.91,11.5c-1.19,14.42-2.56,29.11-4.18,44-.34,3.05-.69,6.12-1,9.19-1.89,16.3-4.12,32.75-6.78,49.22q-.95,5.94-2,11.89-1.59,9.19-3.38,18.37-1.14,5.86-2.38,11.72-3.9,18.54-8.71,36.81-2.83,10.65-5.71,20.49-1.53,5.24-3.08,10.26c-2,6.29-3.91,12.32-5.92,18.14q-2.1,6.12-4.26,11.91c-14,37.76-29.65,65.71-48.61,90.69q-3.51,4.62-7.18,9.12c-21.27,26.15-46.63,49.85-78.2,79.57l-5.83-5.51c-20.81-19.8-50-16.2-44.74,8.84,2.44-4.62,6.64-5.85,11.2-5.4,5.36.53,16.69,11.93,18.74,14.27-5.3,8.32-37.57,35.79-59.57,54a29.2,29.2,0,0,0-8.54,33.11,23.53,23.53,0,0,0,2.38,4.29,17.66,17.66,0,0,0,15.28,8.17c.28,0,.55,0,.82-.05a17.82,17.82,0,0,0,14.09-26.48l64.13-48.65c16.1,21,51.62,18.68,46.16-7.11-7.24,13.71-30.16-2.8-31.65-3.9l1.56-1.18A431.14,431.14,0,0,0,951.16,472.64c.86-2.93,1.69-5.88,2.49-8.83A430.82,430.82,0,0,0,968.5,360.86c0-.54,0-1.07,0-1.6,0,0,.21-2.59.54-7.25,1.18-16.32,3.84-58.15,4-104.63q0-4.51,0-9.08C973,203.84,971.42,167.6,966.8,137.82Z"></path> <path class="cls-1" d="M771,696.25s196.9-120.62,183-420C952,587,767.58,692,767.58,692Z"></path> <path d="M306.73,172.25c0-25.07-26.9-55-26.9-55V207.1S306.73,191.2,306.73,172.25Z"></path> <path d="M533.93,271.65l32.13-9c-4.55-5-9.53-7-14.45-6.87,6.34-9.38,9.49-21.49,8.67-35.08l-26.35,39.08-9.86,14.63c1.55-.35,3.06-.78,4.53-1.26Z"></path> <path d="M252.22,53.88V309.31A401,401,0,0,0,419.93,635.48l114,81.54.38.28,3.19,2.28,118.09-84.14A401,401,0,0,0,823.93,308.83V53.88ZM540.61,201.41c0-.22-.09-.42-.14-.63-.15-.62-.32-1.23-.51-1.85l33.78-21.26c1.92,12.27,10.11,26,22.2,27.33.55.06,1.1.11,1.67.12,2,0,4,.14,5.89.34a48.78,48.78,0,0,1,7.22,1.34,29.89,29.89,0,0,1,19.76,16c3.45,6.85,5.48,16.11,5.57,28.52.2,26-15.49,48.84-30.52,53.51,0,0-8.85-12.74-14.86-20.33l23.6-2.81c-7.25-5.88-12.88-11.51-38.46-6.78l-41.88,10-1.34.32-.15,0c-18,5.64-27.49,14.92-48.06,85,.37-.66,12.26-22.08,21.53-38.46a82.25,82.25,0,0,0,.24,12.45c.92,9.73,11.87,17.4,3,37.44-1.85,4.18-11,5.93-15.9,6.58A25.9,25.9,0,0,0,478.72,395a27,27,0,0,0-6.32,9.16,62,62,0,0,0-4.78,27.22l.88,18.45a59,59,0,0,1-9.5-15.16c-6.92-16.22-6.53-32.45,4.36-55.65a47.66,47.66,0,0,0,3.79-18.57c-.11-5.75.67-16.19,3.86-22.7l18.82-38.35a97.79,97.79,0,0,0,9.47-33.3,97.44,97.44,0,0,1,4.12-19.81,20.16,20.16,0,0,0,4.73.2,26.27,26.27,0,0,0,8.25-2.07,42,42,0,0,0,17.53-14.79C539.64,221.39,542.73,211.17,540.61,201.41Zm113.77-19.95,19.51-9.61-11.63-13.48c21.25,1.75,45,6.7,67.21,16.93a71.62,71.62,0,0,1-66.55,48.95A65,65,0,0,0,641.44,208l-.25-4.09,21.42-2.45Zm84.56,21,24.12-6.17c18,15.09,33,35.57,42,63-30.2,31.86-84.55,39.29-123.47,18.89A126.13,126.13,0,0,0,679.79,262l11.89-22.35L714.77,250l3.65-25,25.15,2.35ZM581,384.32l-47.11-18.86-14.54-5.81s-6-11.94-6.46-15.44c-2.95-23.17,9.69-38,21-49.82.4-.43.79-.83,1.19-1.24,0,0,20.45,16.83,38.43-6.63L584,285.19l11.28,16.16,4.33,5.94,33.67,46.23c-5.93,2.34-12.26,3.86-19,5.83C596.09,364.63,592.12,363.3,581,384.32Zm2.26,8.36-2.68,15.76-46.69-18.68-18.08-7.23,3.53-15.45,14.55,5.83Zm26.76-82.19,2.79-1.86,8.21-5.45.11.15,28.62,39.47,2.68,3.7-9,6-2.22,1.48-.83-1.16-1.39-1.93Zm15.35-11c18.26-18.34,22.19-50.73,12.76-75.07a59.86,59.86,0,0,0-6.5-12.4A52.08,52.08,0,0,1,642,216.85a56.65,56.65,0,0,1,18.77,19,75.29,75.29,0,0,1,7.2,15.51c7.21,21.27,6.08,45.88-1.45,61.95-3.9,10.83-8,18.72-12.5,24.61Zm-6.36-98.32a94.37,94.37,0,0,0-13.24-1.1l-.79-1c7.94-5.3,15.16-20.37,15.76-40.18A194.37,194.37,0,0,1,642,157.61,61.15,61.15,0,0,1,619.05,201.21Zm-34.21-13.15A55.45,55.45,0,0,1,579.46,174L614,120.77S615.18,178.05,584.84,188.06Zm-231.48-65.8a33.39,33.39,0,0,1-8.87,8.43l-43.16-30.53ZM533.93,460.63a11.16,11.16,0,0,1-5.15-1.64l5.15-10.78L552.18,410c-6.53-2.07-12.72-3.07-18.25-2.47a21.73,21.73,0,0,0-16.74,10.38c-3.58,5.58-2.6,22.33-13.68,37-5.29,7-12.56,5-15,.77-5.82-10.06-20.16-8.88-14.22-39.17,29.06,8.1,26.54-15.85,25.69-22.16a27.29,27.29,0,0,0,13.56-5.75l20.38,8.16,40.91,16.37c-5.63,33.39-13.23,31.77-24.58,33.18C544.77,458.73,538.32,460.92,533.93,460.63ZM649.48,626.89l-112,79.76h0V502l31.07,10.53-13.06,49.14,50.73-.86,3.5,50.61,47.84-17.24,9,19.8Q658.23,620.65,649.48,626.89Zm65.91-59.39a143.92,143.92,0,0,1-122-101.68,101.34,101.34,0,0,1-3.9-22.93,415.77,415.77,0,0,0,32.39-29.68l40.48,2.08.66,42.74,40.84-12.29,14.4,40.14L753.06,461l18.81,22.89A392.34,392.34,0,0,1,715.39,567.5Zm80-141.57a121,121,0,0,1-131.23-68.24,151.81,151.81,0,0,0,10.91-25.1l28.17-17.52L723.29,343l21.33-26.88,28,19.9,11.53-32.4,29.28,8.26A389.69,389.69,0,0,1,795.37,425.93Zm18-224c-9.25-1.07-27.51-4.19-28-12.25-.79-13.19,18.43-13.33,28-12.59Zm0-54a115.16,115.16,0,0,0-45.57-.38c-27.87,5.57-20.68-12.29,0-25.88,15.4-10.12,36-6.46,45.57-3.94Zm0-67.41c-68.14-7.48-82.8,17.72-111.22,17.72-37.44,0-52.15-18.79-90.07-18.79-59,0-72.18,57-74.62,92.74V64.4H813.41Z"></path> <polygon class="cls-2" points="388.59 64.39 388.47 63.99 388.38 64.39 376.28 119.59 408.7 133.31 388.59 64.39"></polygon> <path class="cls-2" d="M497.42,117.26v53.18l17.18,7V64l-.33.4c-4,4.78-43.34,52.2-55.29,89.62l13.54,5.85C478.51,138.17,497.42,117.26,497.42,117.26Z"></path> <path class="cls-2" d="M518,575c-7.56-35.95-20.63-62.86-6.39-109.51,0,0-37.49,34.94-58.84,1.63-39.25-61.19,13.87-82.81,1.75-125.86-24.47,43-50.91,27.52-39.4,102.46C383,387,413.2,348,439,333.05c28.75-16.66,45.87-49.53,27.43-101.6-9.77,29.66-30.54,25.35-40.1,58.44-6.86,23.76-12.63,38.25-44.16,46.63,32.67-36.9,21.31-55.33,33.7-74.4,9.7-14.91,25.62-28.91,17.87-53-6.94,23-61.22,20.18-68.57,80-7.91-64.2,34-84.42,52.9-90.28l-51.33-35.4-23.89,109s-9.12,29.73-5.07,48.86c8.06,37.89,35.76,30,35.13,91.65-12.12-43.49-36.68-45.55-50.12-81.91-7.61-20.57,3.36-49,3.94-51.44,6.21-26.35-8-16.58-13.41-53.6-33.44,39.69,17.33,71.18-24.35,91.21-13.91-47.3.67-95.72,19.51-103.45,7.2-2.95,20-5.87,20-5.87,3.1-77-59.57-138-65.34-143.49l-.42-.4V270c0,4.35,0,8.7.08,13q.3,32.81,2.06,65.57l.06,1.12.1,1.79h.1c65.49,4.61,62.77,55.25,86.25,80.38,16.48,17.64,51.47,30.38,60.45,67-37.91-32.36-69.27-40.36-80.18-57.64-18.47-29.27-7-69.46-64.48-77.13C293.2,393,281,425.81,289.16,450.26a41.58,41.58,0,0,0,1.7,4.29,37.2,37.2,0,0,0,2.59,4.69c17.88,27.48,39.44,13.14,71,32.07,11.19,6.71,46.91,44.16,83.95,44.16-32.44,16.75-56.32,5-73.69-11.48-11.84-11.25-22.19-24.16-39.45-28.47-15.53-3.89-23.64,2.5-23.64,2.5,34.42,19.18,30.65,48,46,66.34.41.48.83.95,1.25,1.42,6.55,7.13,16.4,12.5,33.25,14.8,21.35,2.93,29.14-13.26,88.64-2.66-24.24,5.71-29.56,28.72-87.52,20.49,28.73,33.9,76.21,48.42,100.8-2.11-7.94,51.7.83,42.75,1.46,80.28v.15l.08-.09C507.94,663.47,525.91,612.6,518,575ZM279.83,117.26s26.9,29.92,26.9,55c0,18.95-26.9,34.85-26.9,34.85Z"></path> <path class="cls-1" d="M666.58,614l-9-19.82L609.74,611.4l-3.5-50.62-50.73.87,13.06-49.15L537.5,502V706.64h0l112-79.77Q658.24,620.64,666.58,614Z"></path> <path class="cls-1" d="M729.48,175.29c-22.26-10.22-46-15.18-67.22-16.93l11.63,13.49-19.51,9.6,8.24,20-21.43,2.45.25,4.09a64.82,64.82,0,0,1,21.48,16.26A71.61,71.61,0,0,0,729.48,175.29Z"></path> <path class="cls-1" d="M715.4,567.49a391.43,391.43,0,0,0,56.47-83.61L753.06,461,718.3,485.88l-14.4-40.15L663.06,458l-.66-42.74-40.48-2.08a412,412,0,0,1-32.39,29.68,101.15,101.15,0,0,0,3.9,22.93A143.93,143.93,0,0,0,715.4,567.49Z"></path> <path class="cls-1" d="M619.05,201.21a61.1,61.1,0,0,0,22.9-43.6,191.69,191.69,0,0,0-21.16,1.29c-.6,19.81-7.83,34.87-15.76,40.17l.78,1A93,93,0,0,1,619.05,201.21Z"></path> <path class="cls-1" d="M805.05,259.37c-9-27.48-24-48-42-63L739,202.49l4.62,24.89L718.43,225l-3.66,25-23.09-10.37L679.79,262a126.13,126.13,0,0,1,1.79,16.26C720.5,298.65,774.86,291.23,805.05,259.37Z"></path> <path class="cls-1" d="M612.12,79.52c37.92,0,52.63,18.78,90.07,18.78,28.42,0,43.08-25.19,111.22-17.72V64.39H537.5V172.25C539.94,136.51,553.09,79.52,612.12,79.52Z"></path> <path class="cls-1" d="M813.41,177.11c-9.57-.74-28.78-.6-28,12.59.48,8.06,18.75,11.19,28,12.25Z"></path> <path class="cls-1" d="M813.39,311.88l-29.28-8.27L772.58,336l-28-19.9L723.3,343l-20.07-27.93-28.17,17.52a152.23,152.23,0,0,1-10.92,25.1,120.94,120.94,0,0,0,131.23,68.23A389.57,389.57,0,0,0,813.39,311.88Z"></path> <path class="cls-1" d="M813.41,117.8c-9.54-2.53-30.17-6.18-45.56,3.93-20.69,13.59-27.88,31.46,0,25.89a114.92,114.92,0,0,1,45.56.38Z"></path> <path class="cls-1" d="M353.37,122.26l-52-22.1,43.17,30.53A33.69,33.69,0,0,0,353.37,122.26Z"></path> <path class="cls-1" d="M505.12,241.41A65,65,0,0,0,529,218.18,63.67,63.67,0,0,0,533.93,208l.17-.45q1-2.61,1.73-5.31c.21-.74.4-1.49.58-2.24l-2.48-1-8.63-3.67c-3.34,5.25-16.86,24-40.48,26,11.58-7,22.8-22.67,24.14-32.92L496.42,183c-3.32,4.61-16.48,21.07-35.91,22.69,9.5-5.76,21-19.74,22.55-28.37l-12-5.11c-3.38,4.8-14.33,18.22-32.09,19.7,8.85-5.37,17.93-17,19.52-25l-12.34-5.24c-3.82,4.76-14,15.62-28.26,16.8,7.17-4.34,15.84-14.2,18-21.14L423,151.85c-4.45,5-13.26,12.89-25.08,13.88,6-3.67,13.15-11.39,16.11-17.68l-13.72-5.83c-3.76,4.33-10.93,10.66-21.16,11.51a37.46,37.46,0,0,0,13.18-14.9L378.9,133.1c-4.32,3.89-10.62,8-18.51,8.61a41.77,41.77,0,0,0,11.66-11.51l-13.32-5.66a25.77,25.77,0,0,1-14.23,6.15l158.29,112C503.58,242.28,504.35,241.84,505.12,241.41Z"></path> <path class="cls-1" d="M503.51,454.94c11.08-14.68,10.1-31.43,13.68-37a21.75,21.75,0,0,1,16.74-10.38c5.54-.59,11.72.4,18.25,2.47L533.93,448.2,528.78,459a11,11,0,0,0,5.15,1.64c4.39.3,10.84-1.9,16.33-14.29,11.35-1.41,19,.21,24.59-33.17l-40.92-16.38-20.37-8.16A27.26,27.26,0,0,1,500,394.37c.85,6.32,3.37,30.27-25.69,22.16-5.94,30.29,8.4,29.11,14.23,39.18C491,459.91,498.22,462,503.51,454.94Z"></path> <path class="cls-1" d="M614,120.76,579.46,174a55.19,55.19,0,0,0,5.39,14.06C615.18,178,614,120.76,614,120.76Z"></path> <polygon class="cls-1" points="519.38 367.08 515.85 382.52 533.93 389.76 580.62 408.45 583.31 392.67 533.93 372.91 519.38 367.08"></polygon> <path class="cls-1" d="M668,251.32a75.26,75.26,0,0,0-7.2-15.51,56.65,56.65,0,0,0-18.77-19,51.56,51.56,0,0,0-10.32-4.79,59.71,59.71,0,0,1,6.5,12.41c9.44,24.33,5.5,56.73-12.76,75.07L654,337.88c4.45-5.89,8.61-13.77,12.5-24.6C674,297.21,675.17,272.6,668,251.32Z"></path> <path class="cls-1" d="M614.26,359.34c6.78-2,13.12-3.48,19-5.82l-33.67-46.23-4.33-6L584,285.2l-10.46,1.31c-18,23.47-38.44,6.64-38.44,6.64l-1.19,1.23c-11.31,11.83-23.94,26.65-21,49.82.44,3.51,6.45,15.44,6.45,15.44l14.54,5.82,47.12,18.86C592.12,363.29,596.09,364.63,614.26,359.34Z"></path> <path class="cls-1" d="M468.5,449.81l-.88-18.44a61.9,61.9,0,0,1,4.79-27.22,27,27,0,0,1,6.31-9.17,26,26,0,0,1,14.52-6.73c4.93-.66,14.05-2.41,15.91-6.59,8.88-20-2.08-27.69-3-37.43a84.94,84.94,0,0,1-.24-12.45c-9.42,16.64-21.54,38.48-21.54,38.48,20.58-70.14,30.09-79.42,48.07-85a.5.5,0,0,1,.15-.05l1.34-.32,41.88-10c25.58-4.73,31.21.9,38.47,6.77l-23.61,2.81c6,7.59,14.86,20.34,14.86,20.34,15-4.68,30.72-27.54,30.52-53.52-.09-12.4-2.11-21.67-5.57-28.51a29.81,29.81,0,0,0-19.76-16,46.31,46.31,0,0,0-7.22-1.33q-2.88-.32-5.89-.36a15.26,15.26,0,0,1-1.67-.12c-12.08-1.35-20.28-15-22.19-27.33L540,198.93c.19.61.36,1.23.51,1.85l.15.62c2.11,9.77-1,20-6.69,28.22a42,42,0,0,1-17.53,14.79,26.13,26.13,0,0,1-8.25,2.07,20.74,20.74,0,0,1-4.73-.2,97.15,97.15,0,0,0-4.12,19.81,97.74,97.74,0,0,1-9.47,33.29L471,337.74c-3.19,6.51-4,16.94-3.85,22.7a47.83,47.83,0,0,1-3.8,18.57c-10.89,23.2-11.27,39.44-4.36,55.64A59.41,59.41,0,0,0,468.5,449.81Zm65.43-190,26.35-39.08c.82,13.59-2.33,25.7-8.67,35.08,4.92-.09,9.9,1.83,14.45,6.87l-32.13,9-5.33,1.5c-1.47.48-3,.91-4.53,1.26Z"></path> <polygon class="cls-1" points="640.47 352.77 641.3 353.93 643.52 352.45 652.48 346.5 649.8 342.8 621.17 303.33 621.06 303.17 612.85 308.62 610.06 310.48 639.09 350.85 640.47 352.77"></polygon> </svg> 