<?xml version="1.0" ?><svg enable-background="new -206.88 41.76 480.014 483.889" id="Layer_1" version="1.1" viewBox="-206.88 41.76 480.014 483.889" xml:space="preserve" xmlns="http://www.w3.org/2000/svg" xmlns:xlink="http://www.w3.org/1999/xlink"><g id="Layer_1_1_"/><path d="M273.083,158.557c-0.014-1.938-0.027-3.876-0.037-5.813c-0.017-3.444-0.229-6.794-0.436-10.035  c-0.183-2.87-0.355-5.581-0.391-8.247c-0.033-2.503-0.041-5.006-0.05-7.509c-0.013-3.52-0.024-7.159-0.106-10.787  c-0.053-2.349-0.089-4.697-0.125-7.046c-0.057-3.676-0.115-7.476-0.238-11.258c-0.136-4.115-0.333-8.258-0.524-12.266  c-0.043-0.894-0.085-1.788-0.127-2.683c0.1-0.339,0.182-0.685,0.246-1.036c1.446-7.955-0.588-16.623-5.58-23.782  c-4.086-5.858-10.589-10.631-18.313-13.439c-1.184-0.431-2.455-0.632-3.693-0.598c-3.089,0.085-6.169,0.239-9.147,0.388  c-3.044,0.152-5.919,0.296-8.826,0.375c-2.719,0.071-5.516-0.024-8.477-0.126c-3.072-0.106-6.251-0.216-9.515-0.136  c-2.821,0.07-5.642,0.171-8.462,0.272c-3.124,0.113-6.354,0.229-9.494,0.294c-2.493,0.052-4.985,0.117-7.478,0.182  c-3.489,0.09-6.979,0.181-10.468,0.235c-4.193,0.065-8.385,0.094-12.577,0.124l-5.354,0.041c-3.067,0.026-6.082,0.176-8.997,0.321  c-3.063,0.152-5.957,0.296-8.812,0.3c-2.649-0.063-5.381-0.311-8.271-0.572c-3.136-0.283-6.379-0.577-9.739-0.65  c-3.252-0.072-6.445-0.001-9.533,0.066c-2.992,0.066-5.821,0.128-8.617,0.067c-3.194-0.068-6.363-0.04-9.429-0.01  c-3.016,0.028-5.862,0.055-8.711-0.004c-2.822-0.06-5.652-0.227-8.648-0.403c-3.075-0.181-6.256-0.368-9.48-0.434  c-3.146-0.064-6.301-0.073-9.352-0.082c-2.896-0.008-5.89-0.016-8.791-0.073c-2.766-0.055-5.566-0.244-8.53-0.445  c-3.105-0.21-6.317-0.428-9.601-0.489c-3.404-0.064-6.683,0.12-9.852,0.296c-2.912,0.163-5.664,0.319-8.308,0.27  c-2.828-0.049-5.656-0.117-8.483-0.185c-3.221-0.077-6.442-0.154-9.661-0.205c-2.791-0.044-5.596-0.199-8.566-0.362  c-3.105-0.171-6.316-0.348-9.579-0.394c-2.856-0.04-5.807-0.137-8.661-0.23c-3.093-0.102-6.291-0.207-9.488-0.245  c-3.38-0.046-6.652,0.139-9.813,0.314c-2.919,0.161-5.67,0.323-8.351,0.287c-2.628-0.027-5.36-0.257-8.252-0.501  c-3.181-0.268-6.469-0.545-9.898-0.572c-3.23-0.026-6.463-0.011-9.696,0.004c-2.822,0.013-5.646,0.026-8.466,0.011  c-3.275-0.014-6.493,0.089-9.613,0.193c-2.962,0.098-5.758,0.198-8.553,0.183c-3.244-0.012-6.489,0.036-9.629,0.08  c-2.829,0.04-5.66,0.079-8.5,0.079c-0.692,0-1.383,0.072-2.061,0.215c-3.58,0.754-7.914,0.473-12.5,0.177  c-1.495-0.097-2.991-0.193-4.486-0.26c-8.164-0.361-15.223-0.026-21.575,1.027c-9.144,1.521-16.501,5.344-22.49,11.687  c-9.001,9.149-4.248,20.55-0.986,26.489c-0.011,2-0.01,4-0.01,6.001c0.001,3.119,0.001,6.344-0.045,9.481  c-0.09,6.083-0.188,12.169-0.295,18.262c-0.054,3.091-0.158,6.273-0.259,9.351c-0.098,2.969-0.195,5.939-0.253,8.91  c-0.058,2.954-0.194,5.887-0.338,8.993c-0.14,3.017-0.285,6.137-0.351,9.269c-0.066,3.079-0.08,6.168-0.093,9.156  c-0.014,3.005-0.027,6.113-0.095,9.123c-0.067,2.971-0.119,5.942-0.171,8.914c-0.055,3.123-0.11,6.246-0.183,9.369  c-0.072,3.139-0.08,6.28-0.087,9.318c-0.007,2.958-0.015,6.017-0.084,8.971c-0.074,3.139-0.101,6.293-0.127,9.344  c-0.025,2.984-0.051,5.967-0.12,8.95c-0.063,2.724-0.305,5.519-0.561,8.478c-0.273,3.156-0.556,6.42-0.631,9.795  c-0.07,3.152-0.104,6.304-0.136,9.456c-0.031,2.948-0.061,5.896-0.124,8.843c-0.071,3.348-0.126,6.695-0.18,10.042  c-0.045,2.753-0.089,5.506-0.144,8.26c-0.056,2.874-0.167,5.841-0.275,8.71c-0.118,3.128-0.239,6.362-0.295,9.593  c-0.059,3.378,0.076,6.666,0.207,9.846c0.122,2.956,0.236,5.748,0.195,8.479c-0.041,2.788-0.203,5.595-0.374,8.566  c-0.179,3.114-0.364,6.333-0.407,9.613c-0.223,6.121-0.439,12.243-0.647,18.365c-0.118,3.451-0.052,6.83,0.012,10.098  c0.057,2.94,0.112,5.718,0.038,8.455c-0.074,2.685-0.252,5.386-0.441,8.245c-0.221,3.343-0.449,6.798-0.505,10.327  c-0.062,3.854-0.015,7.704,0.03,11.428c0.029,2.402,0.059,4.807,0.059,7.211c0,3.763,0.165,7.475,0.325,11.063  c0.117,2.627,0.227,5.108,0.277,7.605c0.051,2.512-0.013,5.068-0.08,7.774c-0.087,3.535-0.178,7.189-0.01,10.956  c0.172,3.843,0.578,7.581,0.969,11.196c0.282,2.597,0.547,5.05,0.728,7.498c0.164,2.223,0.288,4.45,0.412,6.68  c0.219,3.918,0.445,7.97,0.881,12.075c0.19,1.791,0.367,3.586,0.543,5.381c0.408,4.149,0.829,8.434,1.431,12.755  c0.26,5.641,3.119,11.269,7.76,15.201c4.415,3.738,9.892,5.506,15.173,4.927c2.877,0.007,5.822,0.056,8.676,0.104  c2.961,0.05,6.023,0.102,9.07,0.107c3.283,0.006,6.564,0.033,9.844,0.06c2.853,0.022,5.705,0.046,8.559,0.056  c3.204,0.013,6.386-0.079,9.46-0.165c3.096-0.088,6.02-0.167,8.95-0.157c3.064,0.013,6.129,0.002,9.19-0.009  c3.075-0.011,6.15-0.023,9.218-0.009c2.787,0.013,5.627,0.185,8.635,0.366c3.16,0.19,6.428,0.388,9.784,0.402  c3.15,0.012,6.303-0.017,9.455-0.047c2.989-0.028,5.981-0.059,8.971-0.047c3.188,0.01,6.381-0.006,9.572-0.022  c2.952-0.015,5.906-0.027,8.859-0.023c3.222,0,6.442-0.031,9.664-0.068c2.923-0.033,5.847-0.067,8.771-0.067  c3.313,0,6.583-0.126,9.746-0.248c3.011-0.115,5.856-0.226,8.697-0.232c2.859-0.008,5.713,0.017,8.57,0.041  c3.225,0.027,6.56,0.057,9.877,0.038c2.806-0.011,5.623,0.077,8.608,0.176c3.193,0.106,6.499,0.208,9.849,0.185  c5.38-0.05,11.02-0.127,16.474-0.201l2.319-0.031c3.114-0.042,6.03-1.532,7.89-4.031c1.858-2.499,2.446-5.721,1.591-8.715  c-1.654-5.79-1.654-12.23-1.654-18.458c0-0.256-0.01-0.513-0.029-0.768c-0.173-2.236-0.385-4.47-0.598-6.702  c-0.34-3.565-0.66-6.933-0.813-10.282c-0.145-3.165-0.126-6.366-0.107-9.755c0.014-2.38,0.027-4.841-0.02-7.322  c-0.051-2.661-0.181-5.287-0.307-7.827c-0.16-3.231-0.312-6.283-0.305-9.299c0.008-3.992,0.096-8.102,0.181-12.075  c0.037-1.702,0.073-3.404,0.104-5.106c0.045-2.446,0.062-4.895,0.079-7.342c0.022-3.262,0.046-6.635,0.14-9.896  c0.083-2.91,0.246-5.801,0.418-8.862c0.154-2.737,0.313-5.567,0.41-8.409c0.106-3.113,0.072-6.168,0.039-9.122  c-0.032-2.86-0.063-5.563,0.028-8.227c0.09-2.628,0.234-5.345,0.373-7.972c0.162-3.062,0.33-6.228,0.424-9.404  c0.073-2.522,0.26-5.076,0.457-7.78c0.18-2.464,0.365-4.993,0.465-7.559c0.129-0.896,0.163-1.854,0.088-2.868  c-0.464-6.214-5.464-9.496-10.026-9.496c-0.08,0-0.16,0.001-0.241,0.003c-1.424,0.037-2.775,0.377-3.992,0.956  c-1.086-0.146-2.199-0.311-3.338-0.479c-2.62-0.388-5.329-0.788-8.153-1.036c-2.873-0.252-5.731-0.413-8.495-0.567  c-2.728-0.153-5.305-0.298-7.864-0.523c-1.666-0.146-3.329-0.302-4.986-0.457c-3.42-0.32-6.944-0.65-10.439-0.89  c0.207-0.991,0.402-1.99,0.581-2.994c0.925-5.205,1.683-10.31,2.537-16.372c0.438-3.109,0.744-6.196,1.041-9.182  c0.243-2.442,0.472-4.749,0.766-7.06c0.33-2.594,0.587-5.184,0.836-7.688c0.167-1.686,0.33-3.317,0.51-4.928  c2.615,0.066,5.471,0.2,8.671,0.402c3.136,0.197,6.373,0.452,9.502,0.698c3.204,0.252,6.517,0.513,9.804,0.72  c1.406,0.089,2.81,0.191,4.211,0.294c5.196,0.379,10.564,0.771,16.072,0.5c0.723-0.011,1.567-0.06,2.456-0.11  c0.619-0.035,1.239-0.077,1.62-0.08c5.043,0,9.297-3.755,9.923-8.76c0.674-5.392,0.74-10.656,0.805-15.746l0.019-1.462  c0.039-2.798,0.01-5.581-0.019-8.272c-0.028-2.68-0.056-5.211-0.021-7.753c0.018-1.243,0.021-2.488,0.026-3.735  c0.014-3.82,0.025-7.436,0.424-10.854l0.271-1.341c0.972-4.773,1.976-9.708,1.989-15.092c0.06-0.542,0.436-1.908,0.847-2.731  c0.694-1.389,1.056-2.92,1.056-4.472l-0.001-2.71c1.451-5.522,3.396-11.004,5.789-16.313c2.585-5.733,6.508-10.871,9.635-14.704  c3.477-4.261,7.378-8.66,12.338-11.966c0.829-0.552,1.908-1.043,3.158-1.612c1.482-0.675,3.282-1.494,5.165-2.659  c4.394-1.932,8.024-3.322,11.375-4.359c3.512-1.085,7.221-1.651,11.685-2.153c2.39-0.13,4.757-0.309,7.049-0.482  c3.897-0.294,7.579-0.572,11.221-0.615c1.251-0.015,2.502-0.034,3.753-0.052c5.106-0.078,9.931-0.15,14.751,0.048  c6.575,0.27,12.49,0.683,18.07,1.264c2.086,0.346,4.28,0.692,6.529,1.001c-0.562,4.31-1.008,8.607-1.201,12.955  c-0.104,2.357-0.194,4.714-0.283,7.071c-0.159,4.223-0.324,8.589-0.584,12.824c-0.064,1.054-0.124,2.113-0.185,3.175  c-0.153,2.718-0.303,5.361-0.533,7.934c-0.374,0.011-0.75,0.022-1.128,0.033c-2.039,0.061-4.08,0.121-6.097,0.208  c-5.243,0.227-10.577,0.556-15.562,0.878c-1.353,0.087-2.704,0.161-4.052,0.234c-3.68,0.2-7.478,0.407-11.319,0.889  c-9.599,0.203-18.189,4.573-23.289,11.579c-1.519,0.664-2.629,1.569-3.345,2.284c-0.466,0.466-0.884,0.977-1.249,1.524  c-2.406,3.608-3.376,6.715-4.156,9.21c-0.152,0.487-0.309,0.988-0.483,1.512c-0.34,1.02-0.513,2.087-0.513,3.162l0.001,0.193  c-1.98,3.432-4.044,8.496-2.358,14.35c1.318,6.28,1.961,12.285,1.964,18.345c0.002,5.646-0.062,13.062-0.582,20.352  c-0.017,0.237-0.024,0.401-0.024,0.639c-0.011,0.336-0.056,0.782-0.094,1.229c-0.082,0.952-0.166,1.936-0.166,2.864  c0,5.307,4.146,9.689,9.444,9.984c6.183,0.344,12.362,0.421,18.339,0.494l0.107,0.002c3.679,0.045,7.317,0.19,11.169,0.345  c2.219,0.089,4.437,0.177,6.656,0.246c6.07,0.188,11.685,0.574,17.165,1.184c0.206,0.022,0.412,0.039,0.619,0.049  c-0.346,2.325-0.707,4.617-1.063,6.856c-0.912,5.731-2.008,11.869-3.448,19.315c-0.627,3.241-1.355,6.465-2.128,9.878  c-0.664,2.936-1.35,5.966-1.976,9.053c-0.104,0.358-0.195,0.712-0.277,1.059c-4.412,0.467-8.713,0.653-13.028,0.551  c-6.12-0.134-12.175-0.581-18.585-1.054l-0.567-0.042c-6.719-0.497-13.313-0.738-20.157-0.738c-2.983,0-5.811,1.332-7.71,3.632  s-2.674,5.327-2.11,8.257c1.318,6.853,2.09,12.612,2.43,18.122c0.25,4.069,0.09,8.29-0.079,12.757  c-0.08,2.087-0.158,4.174-0.197,6.26c-0.146,7.835-0.342,13.835-0.635,19.453c-0.148,2.854-0.38,5.808-0.603,8.665  c-0.286,3.661-0.582,7.446-0.728,11.244c-0.005,0.128-0.008,0.257-0.008,0.385c0,3.105,0.212,6.083,0.417,8.964  c0.188,2.647,0.366,5.149,0.366,7.544c0,2.413-0.169,4.924-0.349,7.582c-0.193,2.871-0.394,5.84-0.394,8.927  c0,0.158,0.004,0.317,0.012,0.476c0.129,2.714,0.29,5.409,0.451,8.093c0.257,4.273,0.499,8.31,0.609,12.354  c0.096,3.562,0.271,7.114,0.439,10.55c0.163,3.328,0.332,6.77,0.423,10.113c0.076,2.81,0.068,5.657,0.06,8.673  c-0.013,4.012-0.024,8.159,0.176,12.363c0.249,5.237,4.502,9.394,9.744,9.521c4.931,0.12,9.973,0.173,14.849,0.224l2.895,0.03  c2.214,0.024,4.426,0.067,6.636,0.109c3.433,0.065,6.978,0.133,10.513,0.133c0.138,0,0.276,0,0.413,0  c3.37-0.005,6.696-0.134,9.913-0.258c2.64-0.102,5.133-0.197,7.635-0.23c2.529-0.032,5.058,0.002,7.731,0.04  c3.188,0.045,6.483,0.092,9.814,0.012c3.47-0.082,6.949-0.233,10.313-0.38c2.4-0.104,4.802-0.21,7.204-0.29  c2.538-0.083,5.081-0.125,7.625-0.167c3.222-0.053,6.553-0.107,9.895-0.247c2.359-0.099,4.721-0.181,7.084-0.263  c3.325-0.115,6.76-0.234,10.186-0.399c9.446-0.099,19.369-5.31,26.598-13.984c1.497-1.797,2.317-4.063,2.317-6.401  c0-3.391-0.108-6.778-0.213-10.055c-0.098-3.053-0.189-5.936-0.201-8.816c-0.014-3.315-0.096-6.635-0.174-9.845  c-0.072-2.939-0.146-5.979-0.165-8.926c-0.02-2.996,0.035-5.968,0.093-9.113c0.058-3.14,0.117-6.386,0.096-9.64  c-0.021-3.06,0.034-6.092,0.092-9.302c0.055-3.073,0.112-6.251,0.097-9.435c-0.016-3.137-0.105-6.266-0.191-9.291  c-0.093-3.254-0.181-6.327-0.186-9.426c-0.005-2.979-0.059-5.968-0.11-8.858c-0.059-3.242-0.119-6.596-0.106-9.837  c0.012-3.11,0.138-6.22,0.271-9.511c0.12-2.98,0.245-6.063,0.278-9.169c0.033-3.01-0.011-6.007-0.053-8.906  c-0.05-3.376-0.096-6.564-0.032-9.739c0.063-2.914,0.23-5.828,0.407-8.913c0.172-3.004,0.35-6.11,0.427-9.252  c0.075-3.11,0.187-6.221,0.298-9.331c0.105-2.949,0.21-5.897,0.287-8.849c0.082-3.211,0.044-6.381,0.006-9.447  c-0.037-3.036-0.072-5.904,0.003-8.757c0.077-2.915,0.218-5.928,0.354-8.842c0.142-3.049,0.288-6.201,0.37-9.355  c0.083-3.235,0.064-6.446,0.047-9.551c-0.018-3-0.033-5.833,0.035-8.67c0.069-2.836,0.206-5.648,0.351-8.625  c0.152-3.122,0.31-6.349,0.381-9.592c0.061-2.803,0.2-5.593,0.349-8.546c0.157-3.147,0.32-6.401,0.38-9.68  c0.069-3.684,0.108-7.37,0.148-11.055c0.025-2.398,0.051-4.796,0.085-7.194c0.061-4.284,0.093-8.568,0.125-12.852l0.043-5.407  c0.023-2.711,0.096-5.511,0.166-8.218c0.084-3.275,0.172-6.661,0.181-10.049C273.143,166.871,273.113,162.714,273.083,158.557z   M252.958,180.56c-0.072,2.791-0.146,5.677-0.173,8.56l-0.043,5.432c-0.031,4.239-0.063,8.479-0.123,12.718  c-0.034,2.421-0.061,4.842-0.086,7.264c-0.039,3.632-0.078,7.264-0.146,10.898c-0.055,2.965-0.202,5.921-0.359,9.05  c-0.147,2.961-0.301,6.024-0.369,9.108c-0.064,2.976-0.208,5.93-0.36,9.058c-0.145,2.965-0.294,6.031-0.369,9.112  c-0.076,3.139-0.058,6.256-0.04,9.271c0.018,3.085,0.034,6-0.042,8.917c-0.076,2.949-0.218,5.997-0.354,8.945  c-0.141,3.013-0.285,6.127-0.367,9.243c-0.086,3.238-0.047,6.437-0.009,9.528c0.036,3.013,0.071,5.857-0.002,8.687  c-0.074,2.884-0.178,5.769-0.28,8.652c-0.113,3.186-0.228,6.371-0.305,9.556c-0.068,2.813-0.229,5.622-0.4,8.597  c-0.179,3.122-0.363,6.352-0.436,9.638c-0.07,3.54-0.02,7.053,0.03,10.45c0.042,2.901,0.082,5.643,0.053,8.397  c-0.031,2.811-0.145,5.612-0.264,8.578c-0.135,3.326-0.273,6.766-0.287,10.242c-0.013,3.46,0.049,6.923,0.109,10.272  c0.051,2.811,0.103,5.717,0.107,8.532c0.005,3.366,0.101,6.72,0.193,9.964c0.087,3.044,0.169,5.919,0.184,8.818  c0.015,2.954-0.038,5.88-0.094,8.978c-0.057,3.189-0.116,6.487-0.095,9.791c0.02,3.006-0.034,5.986-0.093,9.143  c-0.057,3.129-0.116,6.364-0.096,9.608c0.021,3.126,0.097,6.258,0.171,9.286c0.076,3.11,0.155,6.326,0.168,9.438  c0.013,3.158,0.114,6.317,0.211,9.372c0.061,1.87,0.118,3.681,0.156,5.465c-2.98,2.669-6.404,4.338-9.139,4.338  c-0.162,0-0.325,0.004-0.487,0.012c-3.357,0.164-6.797,0.283-10.122,0.399c-2.41,0.083-4.817,0.167-7.222,0.268  c-3.091,0.129-6.294,0.182-9.392,0.232c-2.655,0.044-5.308,0.088-7.958,0.176c-2.473,0.082-4.943,0.189-7.413,0.297  c-3.267,0.143-6.645,0.289-9.917,0.367c-2.955,0.07-5.921,0.028-9.059-0.016c-2.689-0.038-5.471-0.077-8.274-0.04  c-2.757,0.036-5.495,0.142-8.144,0.244c-3.175,0.122-6.174,0.237-9.173,0.242c-3.422,0-7.048-0.063-10.514-0.129  c-2.264-0.044-4.529-0.087-6.798-0.111l-2.906-0.031c-1.646-0.017-3.312-0.034-4.982-0.055c0.001-0.659,0.003-1.324,0.005-1.995  c0.01-3.032,0.019-6.167-0.066-9.276c-0.096-3.562-0.271-7.114-0.439-10.55c-0.163-3.328-0.332-6.77-0.423-10.111  c-0.119-4.374-0.382-8.765-0.637-13.011c-0.151-2.521-0.304-5.052-0.427-7.6c0.01-2.343,0.174-4.778,0.348-7.353  c0.193-2.871,0.394-5.84,0.394-8.927c0-3.105-0.212-6.084-0.417-8.964c-0.184-2.579-0.356-5.019-0.366-7.356  c0.134-3.339,0.396-6.702,0.675-10.259c0.232-2.984,0.474-6.07,0.636-9.182c0.305-5.849,0.508-12.055,0.658-20.12  c0.037-1.957,0.112-3.915,0.187-5.874c0.181-4.76,0.367-9.682,0.057-14.745c-0.172-2.777-0.434-5.589-0.797-8.514  c2.299,0.106,4.597,0.244,6.909,0.415l0.568,0.042c6.381,0.471,12.979,0.958,19.614,1.104c6.888,0.155,13.715-0.279,20.843-1.321  c4.483-0.348,8.262-3.04,10.23-7.353c0.969-2.121,1.323-4.22,1.608-5.905c0.081-0.48,0.204-1.206,0.26-1.404  c0.131-0.393,0.237-0.794,0.318-1.2c0.603-3.014,1.299-6.088,1.971-9.061c0.772-3.414,1.571-6.943,2.258-10.493  c1.483-7.669,2.615-14.015,3.563-19.97c1.024-6.433,2.083-13.304,2.788-20.355c0.362-3.626-1.275-7.162-4.275-9.229  c-2.999-2.067-6.886-2.339-10.146-0.71c-0.824,0.411-1.263,0.452-3.929,0.363c-0.667-0.022-1.352-0.044-2.061-0.053  c-5.847-0.635-11.816-1.041-18.232-1.239c-2.158-0.067-4.316-0.153-6.474-0.24c-3.818-0.152-7.768-0.311-11.722-0.359l-0.107-0.001  c-2.455-0.03-4.946-0.061-7.44-0.111c0.241-5.686,0.278-11.083,0.276-15.46c-0.003-7.462-0.787-14.817-2.396-22.468  c0.203-0.371,0.545-0.937,1.118-1.798c1.096-1.643,1.68-3.573,1.68-5.547l-0.004-1.516c0.026-0.087,0.054-0.174,0.081-0.26  c0.104-0.332,0.197-0.632,0.286-0.908c2.359-1.218,3.717-3.072,4.237-3.904c0.272-0.436,0.511-0.892,0.713-1.364  c1.294-3.019,5.269-4.394,8.414-4.394c0.441,0,0.883-0.029,1.321-0.087c3.277-0.437,6.729-0.625,10.383-0.823  c1.416-0.077,2.836-0.154,4.257-0.247c4.873-0.315,10.079-0.637,15.135-0.855c1.927-0.083,3.877-0.141,5.824-0.199  c3.272-0.097,6.655-0.197,9.954-0.417c4.508-0.301,8.254-3.586,9.14-8.016c1.26-6.298,1.607-12.448,1.943-18.396  c0.059-1.03,0.116-2.056,0.18-3.081c0.273-4.47,0.443-8.955,0.606-13.292c0.088-2.312,0.175-4.625,0.278-6.937  c0.221-4.964,0.834-9.927,1.602-15.251c2.077-1.833,3.388-4.514,3.388-7.501c0-5.523-4.478-10-10-10c-5.396,0-12.086-1-17.313-1.871  c-0.197-0.033-0.396-0.06-0.596-0.081c-6.096-0.642-12.52-1.096-19.642-1.388c-5.379-0.22-10.712-0.14-15.869-0.063  c-1.229,0.019-2.459,0.037-3.688,0.051c-4.278,0.05-8.454,0.366-12.493,0.671c-2.38,0.18-4.628,0.35-6.89,0.468  c-0.194,0.01-0.388,0.026-0.58,0.047c-4.95,0.55-10.274,1.289-15.666,2.956c-4.296,1.329-8.83,3.074-14.27,5.491  c-0.518,0.23-1.015,0.504-1.486,0.818c-0.829,0.552-1.908,1.043-3.158,1.612c-1.692,0.77-3.798,1.728-5.968,3.175  c-7.177,4.784-12.49,10.753-16.742,15.964c-3.899,4.781-8.829,11.275-12.37,19.127c-3.05,6.766-5.492,13.781-7.259,20.85  c-0.198,0.793-0.299,1.607-0.299,2.425l0.001,1.917c-1.016,2.652-1.901,6.037-1.901,9.146c0,3.412-0.771,7.201-1.588,11.212  l-0.358,1.774c-0.048,0.239-0.087,0.479-0.117,0.721c-0.59,4.722-0.605,9.245-0.621,13.618c-0.004,1.178-0.008,2.354-0.024,3.529  c-0.038,2.787-0.009,5.559,0.02,8.24c0.028,2.689,0.055,5.23,0.02,7.784l-0.02,1.488c-0.021,1.708-0.042,3.381-0.085,5.023  c-2.994-0.059-6.105-0.286-9.335-0.522c-1.467-0.107-2.937-0.214-4.409-0.307c-3.133-0.198-6.368-0.452-9.496-0.698  c-3.206-0.252-6.521-0.513-9.811-0.72c-8.351-0.528-14.695-0.625-20.571-0.315c-4.533,0.239-8.337,3.501-9.264,7.945  c-0.409,1.963-0.211,3.94,0.487,5.709c-0.02,0.201-0.036,0.408-0.048,0.623c-0.386,2.915-0.67,5.776-0.946,8.548  c-0.246,2.478-0.479,4.818-0.774,7.136c-0.33,2.586-0.583,5.141-0.828,7.612c-0.29,2.913-0.563,5.665-0.943,8.368  c-0.824,5.85-1.551,10.751-2.423,15.662c-0.601,3.383-1.473,6.85-2.395,10.52c-0.405,1.613-0.81,3.224-1.192,4.829  c-0.953,3.999,0.64,8.174,4.013,10.523c3.207,2.233,7.403,2.386,10.749,0.435c0.711-0.078,2.191-0.021,3.209,0.018  c0.868,0.033,1.741,0.065,2.607,0.072c3.47,0.223,6.982,0.552,10.694,0.899c1.695,0.158,3.397,0.317,5.101,0.468  c2.873,0.252,5.73,0.413,8.494,0.567c2.729,0.153,5.306,0.298,7.865,0.523c2.204,0.193,4.474,0.527,6.873,0.882  c-0.159,2.239-0.305,4.534-0.373,6.868c-0.086,2.939-0.241,5.851-0.404,8.932c-0.144,2.719-0.293,5.53-0.39,8.345  c-0.107,3.118-0.072,6.179-0.039,9.138c0.032,2.856,0.063,5.555-0.028,8.215c-0.089,2.62-0.235,5.218-0.39,7.969  c-0.172,3.061-0.35,6.226-0.442,9.41c-0.1,3.479-0.124,6.962-0.147,10.331c-0.017,2.373-0.033,4.746-0.076,7.119  c-0.03,1.68-0.066,3.359-0.102,5.04c-0.087,4.069-0.177,8.276-0.186,12.459c-0.008,3.532,0.163,6.989,0.329,10.334  c0.124,2.5,0.241,4.861,0.286,7.214c0.042,2.235,0.029,4.469,0.016,6.832c-0.02,3.492-0.04,7.103,0.128,10.776  c0.174,3.843,0.534,7.618,0.882,11.27c0.189,1.987,0.379,3.975,0.537,5.964c0,3.341,0.011,7.063,0.301,10.969  c-2.393,0.029-4.774,0.056-7.107,0.077c-2.93,0.034-5.879-0.07-9-0.173c-3.045-0.102-6.196-0.2-9.384-0.188  c-3.175,0.02-6.438-0.01-9.593-0.037c-2.932-0.024-5.865-0.05-8.793-0.042c-3.199,0.008-6.359,0.13-9.414,0.247  c-3.111,0.12-6.049,0.233-8.977,0.233c-3.001,0-6.001,0.034-9.001,0.068c-3.134,0.036-6.267,0.064-9.394,0.067  c-3.001-0.004-6,0.009-9.001,0.023c-3.135,0.016-6.271,0.03-9.403,0.022c-3.076-0.017-6.152,0.018-9.229,0.048  c-3.061,0.028-6.123,0.059-9.18,0.046c-2.794-0.012-5.645-0.184-8.663-0.366c-3.147-0.189-6.402-0.387-9.749-0.402  c-3.126-0.013-6.252-0.004-9.379,0.009c-3.014,0.01-6.026,0.021-9.038,0.009c-3.254-0.013-6.477,0.077-9.596,0.165  c-3.054,0.086-5.943,0.17-8.829,0.157c-2.821-0.01-5.643-0.032-8.466-0.056c-3.321-0.026-6.643-0.053-9.967-0.06  c-2.923-0.006-5.847-0.055-8.772-0.104c-3.153-0.053-6.413-0.107-9.665-0.107c-0.411,0-0.82,0.025-1.228,0.075  c-0.403-0.213-0.942-0.797-1.074-1.182c-0.006-0.426-0.039-0.852-0.1-1.274c-0.583-4.081-0.983-8.149-1.407-12.457  c-0.182-1.849-0.363-3.696-0.56-5.54c-0.383-3.605-0.586-7.233-0.8-11.074c-0.131-2.349-0.262-4.694-0.435-7.034  c-0.206-2.792-0.503-5.533-0.79-8.185c-0.375-3.458-0.729-6.725-0.873-9.937c-0.138-3.07-0.059-6.225,0.024-9.564  c0.069-2.808,0.142-5.712,0.082-8.676c-0.056-2.738-0.176-5.458-0.293-8.088c-0.157-3.526-0.305-6.857-0.305-10.176  c0-2.485-0.03-4.97-0.06-7.453c-0.045-3.751-0.088-7.293-0.031-10.867c0.048-3.028,0.25-6.087,0.465-9.326  c0.193-2.924,0.393-5.947,0.477-9.021c0.087-3.205,0.026-6.35-0.034-9.39c-0.062-3.143-0.12-6.11-0.02-9.027  c0.209-6.146,0.426-12.292,0.65-18.437c0.003-0.082,0.005-0.164,0.006-0.246c0.034-2.866,0.201-5.761,0.377-8.826  c0.175-3.051,0.357-6.205,0.405-9.418c0.049-3.29-0.083-6.496-0.21-9.598c-0.125-3.024-0.242-5.882-0.193-8.676  c0.053-3.029,0.17-6.162,0.284-9.19c0.111-2.958,0.226-6.016,0.286-9.068c0.055-2.775,0.1-5.552,0.145-8.329  c0.054-3.313,0.107-6.626,0.178-9.939c0.065-3.02,0.096-6.041,0.128-9.062c0.032-3.072,0.063-6.144,0.132-9.216  c0.062-2.735,0.304-5.544,0.562-8.519c0.271-3.138,0.552-6.384,0.63-9.739c0.072-3.104,0.099-6.223,0.125-9.24  c0.025-2.978,0.052-6.056,0.122-9.047c0.075-3.165,0.082-6.33,0.09-9.391c0.007-2.936,0.014-5.971,0.083-8.904  c0.073-3.16,0.128-6.32,0.184-9.48c0.052-2.938,0.104-5.877,0.17-8.815c0.072-3.191,0.086-6.39,0.1-9.484  c0.013-2.905,0.026-5.908,0.088-8.82c0.061-2.882,0.194-5.74,0.334-8.766c0.144-3.1,0.292-6.306,0.356-9.526  c0.057-2.884,0.152-5.766,0.247-8.647c0.104-3.153,0.21-6.415,0.267-9.658c0.107-6.108,0.205-12.212,0.296-18.314  c0.048-3.288,0.048-6.589,0.047-9.781c0-2.842-0.001-5.684,0.033-8.526c0.022-1.853-0.471-3.675-1.425-5.264  c-1.487-2.478-2.395-4.268-2.708-5.339c2.907-2.937,6.193-4.537,10.864-5.313c4.958-0.823,10.652-1.077,17.409-0.777  c1.36,0.061,2.722,0.149,4.083,0.237c5.144,0.333,10.934,0.708,16.82-0.351c2.608-0.007,5.21-0.043,7.811-0.08  c3.057-0.042,6.214-0.092,9.294-0.078c3.162,0.006,6.263-0.094,9.273-0.194c3.064-0.102,5.965-0.201,8.84-0.182  c2.889,0.016,5.779,0.002,8.668-0.011c3.149-0.014,6.297-0.029,9.445-0.004c2.667,0.021,5.441,0.255,8.377,0.502  c3.126,0.263,6.36,0.536,9.726,0.57c3.331,0.035,6.548-0.144,9.661-0.316c2.961-0.164,5.763-0.316,8.464-0.286  c2.992,0.037,6.085,0.138,9.077,0.236c2.946,0.097,5.993,0.196,9.036,0.239c2.854,0.04,5.723,0.198,8.761,0.365  c3.031,0.167,6.165,0.339,9.349,0.39c3.166,0.049,6.332,0.125,9.498,0.202c2.872,0.069,5.743,0.138,8.615,0.188  c3.373,0.061,6.626-0.123,9.77-0.298c2.934-0.164,5.707-0.319,8.366-0.269c2.793,0.052,5.623,0.244,8.62,0.446  c3.069,0.208,6.243,0.423,9.488,0.487c3.071,0.061,6.151,0.069,9.131,0.077c2.963,0.008,6.027,0.017,8.996,0.078  c2.843,0.058,5.696,0.226,8.717,0.404c3.049,0.179,6.2,0.364,9.4,0.432c3.153,0.067,6.289,0.036,9.321,0.008  c3.047-0.028,5.925-0.056,8.806,0.006c3.235,0.072,6.414,0.001,9.49-0.067c3.004-0.065,5.843-0.126,8.656-0.066  c2.679,0.059,5.447,0.309,8.377,0.574c3.135,0.283,6.376,0.576,9.739,0.65c0.074,0.001,0.147,0.002,0.221,0.002  c3.389,0,6.708-0.165,9.918-0.325c2.838-0.141,5.518-0.275,8.174-0.297l5.324-0.04c4.248-0.03,8.497-0.06,12.746-0.125  c3.56-0.056,7.118-0.148,10.678-0.24c2.458-0.064,4.916-0.128,7.374-0.179c3.292-0.068,6.6-0.188,9.799-0.303  c2.744-0.099,5.488-0.198,8.234-0.266c2.679-0.068,5.422,0.029,8.33,0.129c3.133,0.109,6.371,0.22,9.709,0.131  c3.135-0.085,6.261-0.241,9.282-0.392c2.285-0.114,4.473-0.223,6.652-0.304c3.092,1.384,5.627,3.308,7.099,5.419  c1.421,2.037,2.264,4.342,2.418,6.495c-0.594,1.372-0.88,2.877-0.813,4.411c0.09,2.036,0.187,4.071,0.283,6.106  c0.188,3.935,0.382,8.003,0.512,11.968c0.118,3.607,0.176,7.321,0.231,10.912c0.036,2.396,0.073,4.792,0.128,7.187  c0.076,3.437,0.089,6.98,0.101,10.407c0.009,2.568,0.018,5.136,0.052,7.704c0.042,3.169,0.238,6.262,0.429,9.252  c0.196,3.088,0.382,6.005,0.396,8.863c0.01,1.952,0.023,3.905,0.038,5.857c0.029,4.092,0.059,8.185,0.048,12.275  C253.124,174.131,253.039,177.399,252.958,180.56z"/></svg>